<svg xmlns="http://www.w3.org/2000/svg" viewBox="0 0 800 170" preserveAspectRatio="none">
  <path d="M24 62 C118 47 226 50 337 43 C462 35 603 43 780 32" fill="none" stroke="#050505" stroke-width="54" stroke-linecap="round" stroke-linejoin="round"/>
  <path d="M35 93 C160 80 260 92 386 78 C505 65 646 76 770 65" fill="none" stroke="#050505" stroke-width="58" stroke-linecap="round" stroke-linejoin="round"/>
  <path d="M18 121 C145 116 284 125 401 111 C536 96 644 107 786 96" fill="none" stroke="#050505" stroke-width="46" stroke-linecap="round" stroke-linejoin="round"/>
  <path d="M62 43 C178 62 274 54 392 57 C512 59 634 48 742 52" fill="none" stroke="#050505" stroke-width="34" stroke-linecap="round" stroke-linejoin="round" opacity="0.92"/>
  <path d="M52 136 C184 124 306 139 446 126 C568 115 656 125 748 117" fill="none" stroke="#050505" stroke-width="30" stroke-linecap="round" stroke-linejoin="round" opacity="0.9"/>
</svg>
